<?xml version="1.0" encoding="utf-8"?>
<!-- Generator: Adobe Illustrator 24.1.2, SVG Export Plug-In . SVG Version: 6.00 Build 0)  -->
<svg version="1.1" id="レイヤー_1" xmlns="http://www.w3.org/2000/svg" xmlns:xlink="http://www.w3.org/1999/xlink" x="0px"
	 y="0px" viewBox="0 0 20 20" style="enable-background:new 0 0 20 20;" xml:space="preserve">
<style type="text/css">
	.st0{fill-rule:evenodd;clip-rule:evenodd;fill:#FFFFFF;}
</style>
<desc>Created with Sketch.</desc>
<g id="Page-1">
	<g id="Fullscreen">
		<g id="fullscreen" transform="translate(3.000000, 3.000000)">
			<path id="Fill-1" class="st0" d="M13.3,4.4l-0.9-0.9L9.3,5.8C9,6.1,8.4,6,8.2,5.7c-0.2-0.3-0.2-0.7,0-1l2.4-3.1L9.7,0.7
				C9.4,0.4,9.6,0,9.9,0l3.7,0C13.8,0,14,0.2,14,0.4v3.7C14,4.4,13.6,4.6,13.3,4.4"/>
			<path id="Fill-3" class="st0" d="M0.7,9.6l0.9,0.9l3.1-2.4C5,7.9,5.6,8,5.8,8.3c0.2,0.3,0.2,0.7,0,1l-2.4,3.1l0.9,0.9
				C4.6,13.6,4.4,14,4.1,14l-3.7,0C0.2,14,0,13.8,0,13.6V9.9C0,9.6,0.4,9.4,0.7,9.6"/>
			<path id="Fill-5" class="st0" d="M0.7,4.4l0.9-0.9l3.1,2.4C5,6.1,5.6,6,5.8,5.7c0.2-0.3,0.2-0.7,0-1L3.5,1.5l0.9-0.9
				C4.6,0.4,4.4,0,4.1,0L0.4,0C0.2,0,0,0.2,0,0.4v3.7C0,4.4,0.4,4.6,0.7,4.4"/>
			<path id="Fill-7" class="st0" d="M13.3,9.6l-0.9,0.9L9.3,8.2C9,7.9,8.4,8,8.2,8.3c-0.2,0.3-0.2,0.7,0,1l2.4,3.1l-0.9,0.9
				C9.4,13.6,9.6,14,9.9,14l3.7,0c0.2,0,0.4-0.2,0.4-0.4V9.9C14,9.6,13.6,9.4,13.3,9.6"/>
		</g>
	</g>
</g>
</svg>
