<?xml version="1.0" encoding="utf-8"?>
<!-- Generator: Adobe Illustrator 24.1.2, SVG Export Plug-In . SVG Version: 6.00 Build 0)  -->
<svg version="1.1" id="レイヤー_1" xmlns="http://www.w3.org/2000/svg" xmlns:xlink="http://www.w3.org/1999/xlink" x="0px"
	 y="0px" viewBox="0 0 20 20" style="enable-background:new 0 0 20 20;" xml:space="preserve">
<style type="text/css">
	.st0{fill-rule:evenodd;clip-rule:evenodd;fill:#FFFFFF;}
</style>
<desc>Created with Sketch.</desc>
<g id="Page-1">
	<g id="un-fullscreen">
		<g transform="translate(2.000000, 2.000000)">
			<path id="Fill-1" class="st0" d="M10.7,1.6l0.9,0.9l3.1-2.4C15-0.1,15.6,0,15.8,0.3c0.2,0.3,0.2,0.7,0,1l-2.4,3.1l0.9,0.9
				C14.6,5.6,14.4,6,14.1,6l-3.7,0C10.2,6,10,5.8,10,5.6V1.9C10,1.6,10.4,1.4,10.7,1.6"/>
			<path id="Fill-3" class="st0" d="M5.3,14.4l-0.9-0.9l-3.1,2.4C1,16.1,0.4,16,0.2,15.7c-0.2-0.3-0.2-0.7,0-1l2.4-3.1l-0.9-0.9
				C1.4,10.4,1.6,10,1.9,10l3.7,0C5.8,10,6,10.2,6,10.4v3.7C6,14.4,5.6,14.6,5.3,14.4"/>
			<path id="Fill-5" class="st0" d="M5.3,1.6L4.4,2.5L1.3,0.2C1-0.1,0.4,0,0.2,0.3c-0.2,0.3-0.2,0.7,0,1l2.4,3.1L1.7,5.3
				C1.4,5.6,1.6,6,1.9,6l3.7,0C5.8,6,6,5.8,6,5.6V1.9C6,1.6,5.6,1.4,5.3,1.6"/>
			<path id="Fill-7" class="st0" d="M10.7,14.4l0.9-0.9l3.1,2.4c0.4,0.3,0.9,0.2,1.1-0.2c0.2-0.3,0.2-0.7,0-1l-2.4-3.1l0.9-0.9
				c0.2-0.2,0.1-0.7-0.3-0.7l-3.7,0c-0.2,0-0.4,0.2-0.4,0.4v3.7C10,14.4,10.4,14.6,10.7,14.4"/>
		</g>
	</g>
</g>
</svg>
